<svg xmlns="http://www.w3.org/2000/svg" xmlns:xlink="http://www.w3.org/1999/xlink" viewBox="0,0,256,256" width="32px" height="32px" fill-rule="nonzero"><g fill="#fff1d2" fill-rule="nonzero" stroke="none" stroke-width="1" stroke-linecap="butt" stroke-linejoin="miter" stroke-miterlimit="10" stroke-dasharray="" stroke-dashoffset="0" font-family="none" font-weight="none" font-size="none" text-anchor="none" style="mix-blend-mode: normal"><g transform="scale(16,16)"><path d="M7.5,1c-3.58203,0 -6.5,2.91797 -6.5,6.5c0,3.58203 2.91797,6.5 6.5,6.5c3.58203,0 6.5,-2.91797 6.5,-6.5c0,-3.58203 -2.91797,-6.5 -6.5,-6.5zM7.5,2c3.04297,0 5.5,2.45703 5.5,5.5c0,3.04297 -2.45703,5.5 -5.5,5.5c-3.04297,0 -5.5,-2.45703 -5.5,-5.5c0,-3.04297 2.45703,-5.5 5.5,-5.5zM5.5,4.79297l-0.70703,0.70703l0.35547,0.35156l1.64453,1.64844l-1.64453,1.64844l-0.35547,0.35156l0.70703,0.70703l0.35156,-0.35547l1.64844,-1.64453l1.64844,1.64453l0.35156,0.35547l0.70703,-0.70703l-0.35547,-0.35156l-1.64453,-1.64844l1.64453,-1.64844l0.35547,-0.35156l-0.70703,-0.70703l-0.35156,0.35547l-1.64844,1.64453l-1.64844,-1.64453z"></path></g></g></svg>